STARTFONT 2.1
COMMENT the Lisp Machine name for this font was "36vply.ast"
FONT vply-36.bdf
SIZE 34 75 75
FONTBOUNDINGBOX 16 27 0 0
STARTPROPERTIES 3
FONT_DESCENT 9
FONT_ASCENT 27
COPYRIGHT "Public domain font.  Share and enjoy."
ENDPROPERTIES
CHARS 82
STARTCHAR C032
ENCODING 26
SWIDTH 294 0
DWIDTH 10 0
BBX 10 36 0 -9
BITMAP
00
00
00
00
00
00
00
00
00
00
00
00
00
00
06
06
0c
fe
fe
18
30
fe
fe
60
c0
c0
00
00
00
00
00
00
00
00
00
00
ENDCHAR
STARTCHAR C034
ENCODING 28
SWIDTH 382 0
DWIDTH 13 0
BBX 13 36 0 -9
BITMAP
0000
0000
0000
0000
0000
0000
0000
0000
0000
0000
0000
0000
0000
0180
0780
1e00
7800
e000
e000
7800
1e00
0780
0180
0000
ff80
ff80
0000
0000
0000
0000
0000
0000
0000
0000
0000
0000
ENDCHAR
STARTCHAR C035
ENCODING 29
SWIDTH 382 0
DWIDTH 13 0
BBX 13 36 0 -9
BITMAP
0000
0000
0000
0000
0000
0000
0000
0000
0000
0000
0000
0000
0000
c000
f000
3c00
0f00
0380
0380
0f00
3c00
f000
c000
0000
ff80
ff80
0000
0000
0000
0000
0000
0000
0000
0000
0000
0000
ENDCHAR
STARTCHAR C040
ENCODING 32
SWIDTH 294 0
DWIDTH 10 0
BBX 10 36 0 -9
BITMAP
00
00
00
00
00
00
00
00
00
00
00
00
00
00
00
00
00
00
00
00
00
00
00
00
00
00
00
00
00
00
00
00
00
00
00
00
ENDCHAR
STARTCHAR !
ENCODING 33
SWIDTH 176 0
DWIDTH 6 0
BBX 6 36 0 -9
BITMAP
00
00
00
00
00
00
00
00
00
e0
e0
e0
e0
e0
e0
e0
e0
e0
e0
c0
c0
c0
00
c0
c0
c0
c0
00
00
00
00
00
00
00
00
00
ENDCHAR
STARTCHAR "
ENCODING 34
SWIDTH 264 0
DWIDTH 9 0
BBX 9 36 0 -9
BITMAP
00
00
00
00
00
00
00
ec
cc
dc
dc
dc
dc
cc
00
00
00
00
00
00
00
00
00
00
00
00
00
00
00
00
00
00
00
00
00
00
ENDCHAR
STARTCHAR $
ENCODING 36
SWIDTH 352 0
DWIDTH 12 0
BBX 12 36 0 -9
BITMAP
00
00
00
00
00
00
7e
ff
ff
ff
db
db
db
db
f8
f8
78
3e
1f
1f
1b
db
db
db
ff
fe
7c
00
00
00
00
00
00
00
00
00
ENDCHAR
STARTCHAR %
ENCODING 37
SWIDTH 382 0
DWIDTH 13 0
BBX 13 36 0 -9
BITMAP
0000
0000
0000
0000
0000
0000
0000
7380
d380
d780
7700
0700
0f00
0e00
0e00
1e00
1c00
1c00
3c00
3800
3800
7800
7000
7380
f680
e680
e380
0000
0000
0000
0000
0000
0000
0000
0000
0000
ENDCHAR
STARTCHAR &
ENCODING 38
SWIDTH 411 0
DWIDTH 14 0
BBX 14 36 0 -9
BITMAP
0000
0000
0000
0000
0000
0000
0000
0000
0000
1f00
1f00
3f80
3b80
3b80
3f80
3f00
1e00
3c00
7e00
eee0
e7e0
e7c0
e380
e780
ffc0
fdc0
78e0
0000
0000
0000
0000
0000
0000
0000
0000
0000
ENDCHAR
STARTCHAR '
ENCODING 39
SWIDTH 176 0
DWIDTH 6 0
BBX 6 36 0 -9
BITMAP
00
00
00
00
00
00
00
e0
c0
c0
c0
e0
e0
c0
00
00
00
00
00
00
00
00
00
00
00
00
00
00
00
00
00
00
00
00
00
00
ENDCHAR
STARTCHAR (
ENCODING 40
SWIDTH 323 0
DWIDTH 11 0
BBX 11 36 0 -9
BITMAP
00
00
00
00
00
00
00
0f
3f
78
70
f0
f0
f0
f0
f0
f0
f0
f0
f0
f0
f0
f0
70
78
3f
0f
00
00
00
00
00
00
00
00
00
ENDCHAR
STARTCHAR )
ENCODING 41
SWIDTH 323 0
DWIDTH 11 0
BBX 11 36 0 -9
BITMAP
00
00
00
00
00
00
00
f0
fc
1e
0e
0f
0f
0f
0f
0f
0f
0f
0f
0f
0f
0f
0f
0e
1e
fc
f0
00
00
00
00
00
00
00
00
00
ENDCHAR
STARTCHAR *
ENCODING 42
SWIDTH 323 0
DWIDTH 11 0
BBX 11 36 0 -9
BITMAP
0000
0000
0000
0000
0000
0000
0000
0000
0000
0000
e380
e380
7700
3e00
ff80
ff80
3e00
7700
e380
e380
0000
0000
0000
0000
0000
0000
0000
0000
0000
0000
0000
0000
0000
0000
0000
0000
ENDCHAR
STARTCHAR +
ENCODING 43
SWIDTH 294 0
DWIDTH 10 0
BBX 10 36 0 -9
BITMAP
00
00
00
00
00
00
00
00
00
00
00
00
00
00
00
38
38
38
38
fe
fe
fe
38
38
38
38
00
00
00
00
00
00
00
00
00
00
ENDCHAR
STARTCHAR ,
ENCODING 44
SWIDTH 205 0
DWIDTH 7 0
BBX 7 36 0 -9
BITMAP
00
00
00
00
00
00
00
00
00
00
00
00
00
00
00
00
00
00
00
00
00
00
e0
e0
e0
e0
e0
c0
80
00
00
00
00
00
00
00
ENDCHAR
STARTCHAR -
ENCODING 45
SWIDTH 294 0
DWIDTH 10 0
BBX 10 36 0 -9
BITMAP
00
00
00
00
00
00
00
00
00
00
00
00
00
00
00
00
00
00
00
fe
fe
fe
00
00
00
00
00
00
00
00
00
00
00
00
00
00
ENDCHAR
STARTCHAR .
ENCODING 46
SWIDTH 147 0
DWIDTH 5 0
BBX 5 36 0 -9
BITMAP
00
00
00
00
00
00
00
00
00
00
00
00
00
00
00
00
00
00
00
00
00
00
00
c0
c0
c0
c0
00
00
00
00
00
00
00
00
00
ENDCHAR
STARTCHAR /
ENCODING 47
SWIDTH 352 0
DWIDTH 12 0
BBX 12 36 0 -9
BITMAP
0000
0000
0000
0000
0000
0000
0000
0380
0380
0780
0700
0700
0f00
0e00
0e00
1e00
1c00
1c00
3c00
3800
3800
7800
7000
7000
f000
e000
e000
0000
0000
0000
0000
0000
0000
0000
0000
0000
ENDCHAR
STARTCHAR 0
ENCODING 48
SWIDTH 264 0
DWIDTH 9 0
BBX 9 36 0 -9
BITMAP
00
00
00
00
00
00
00
00
78
fc
fc
fc
fc
cc
cc
cc
cc
cc
cc
cc
cc
cc
fc
fc
fc
fc
78
00
00
00
00
00
00
00
00
00
ENDCHAR
STARTCHAR 1
ENCODING 49
SWIDTH 264 0
DWIDTH 9 0
BBX 9 36 0 -9
BITMAP
00
00
00
00
00
00
00
00
00
38
78
78
f8
38
38
38
38
38
38
38
38
38
38
7c
7c
7c
7c
00
00
00
00
00
00
00
00
00
ENDCHAR
STARTCHAR 2
ENCODING 50
SWIDTH 323 0
DWIDTH 11 0
BBX 11 36 0 -9
BITMAP
00
00
00
00
00
00
00
00
00
7e
7e
ff
ff
ff
e7
e7
c7
1f
3e
7c
60
e3
e7
ff
ff
ff
ff
00
00
00
00
00
00
00
00
00
ENDCHAR
STARTCHAR 3
ENCODING 51
SWIDTH 323 0
DWIDTH 11 0
BBX 11 36 0 -9
BITMAP
00
00
00
00
00
00
00
00
00
ff
ff
ff
ff
ff
c6
0e
1c
3e
3e
06
c7
c7
ff
ff
fe
fe
7c
00
00
00
00
00
00
00
00
00
ENDCHAR
STARTCHAR :
ENCODING 58
SWIDTH 147 0
DWIDTH 5 0
BBX 5 36 0 -9
BITMAP
00
00
00
00
00
00
00
00
00
00
00
00
00
00
c0
c0
c0
c0
00
00
00
00
00
c0
c0
c0
c0
00
00
00
00
00
00
00
00
00
ENDCHAR
STARTCHAR ;
ENCODING 59
SWIDTH 205 0
DWIDTH 7 0
BBX 7 36 0 -9
BITMAP
00
00
00
00
00
00
00
00
00
00
00
00
00
e0
e0
e0
c0
00
00
00
00
00
e0
e0
e0
e0
e0
c0
80
00
00
00
00
00
00
00
ENDCHAR
STARTCHAR <
ENCODING 60
SWIDTH 352 0
DWIDTH 12 0
BBX 12 36 0 -9
BITMAP
0000
0000
0000
0000
0000
0000
0000
0000
0000
0000
0000
0000
0000
0000
0000
0180
0780
1e00
7800
e000
e000
7800
1e00
0780
0180
0000
0000
0000
0000
0000
0000
0000
0000
0000
0000
0000
ENDCHAR
STARTCHAR =
ENCODING 61
SWIDTH 294 0
DWIDTH 10 0
BBX 10 36 0 -9
BITMAP
00
00
00
00
00
00
00
00
00
00
00
00
00
00
00
00
00
fe
fe
00
00
fe
fe
00
00
00
00
00
00
00
00
00
00
00
00
00
ENDCHAR
STARTCHAR >
ENCODING 62
SWIDTH 352 0
DWIDTH 12 0
BBX 12 36 0 -9
BITMAP
0000
0000
0000
0000
0000
0000
0000
0000
0000
0000
0000
0000
0000
0000
0000
c000
f000
3c00
0f00
0380
0380
0f00
3c00
f000
c000
0000
0000
0000
0000
0000
0000
0000
0000
0000
0000
0000
ENDCHAR
STARTCHAR ?
ENCODING 63
SWIDTH 264 0
DWIDTH 9 0
BBX 9 36 0 -9
BITMAP
00
00
00
00
00
00
00
00
30
78
fc
fc
fc
fc
dc
dc
1c
1c
38
30
30
20
00
70
70
70
20
00
00
00
00
00
00
00
00
00
ENDCHAR
STARTCHAR A
ENCODING 65
SWIDTH 352 0
DWIDTH 12 0
BBX 12 36 0 -9
BITMAP
0000
0000
0000
0000
0000
0000
0000
1e00
1e00
1e00
1e00
3f00
3f00
3300
3300
3f00
3f00
3300
7380
6180
6180
7380
f3c0
f3c0
f3c0
f3c0
f3c0
0000
0000
0000
0000
0000
0000
0000
0000
0000
ENDCHAR
STARTCHAR B
ENCODING 66
SWIDTH 323 0
DWIDTH 11 0
BBX 11 36 0 -9
BITMAP
00
00
00
00
00
00
00
fc
fe
ff
ff
ff
67
67
67
66
7e
7e
66
67
67
67
ff
ff
ff
fe
fc
00
00
00
00
00
00
00
00
00
ENDCHAR
STARTCHAR C
ENCODING 67
SWIDTH 294 0
DWIDTH 10 0
BBX 10 36 0 -9
BITMAP
00
00
00
00
00
00
3c
7e
ff
ff
ff
e7
e7
e7
e0
e0
e0
e0
e0
e7
e7
e7
e7
ff
ff
7e
3c
00
00
00
00
00
00
00
00
00
ENDCHAR
STARTCHAR D
ENCODING 68
SWIDTH 352 0
DWIDTH 12 0
BBX 12 36 0 -9
BITMAP
0000
0000
0000
0000
0000
0000
0000
ff00
ff80
ff80
ffc0
39c0
39c0
39c0
39c0
39c0
39c0
39c0
39c0
39c0
39c0
39c0
39c0
ffc0
ffc0
ff80
ff00
0000
0000
0000
0000
0000
0000
0000
0000
0000
ENDCHAR
STARTCHAR E
ENCODING 69
SWIDTH 323 0
DWIDTH 11 0
BBX 11 36 0 -9
BITMAP
0000
0000
0000
0000
0000
0000
0000
ff80
ff80
ff80
ff80
7380
7380
7380
7380
7000
7e00
7e00
7000
7380
7380
7380
7380
ff80
ff80
ff80
ff80
0000
0000
0000
0000
0000
0000
0000
0000
0000
ENDCHAR
STARTCHAR F
ENCODING 70
SWIDTH 323 0
DWIDTH 11 0
BBX 11 36 0 -9
BITMAP
0000
0000
0000
0000
0000
0000
0000
ff80
ff80
ff80
ff80
7980
7980
7980
7980
7980
7800
7f00
7f00
7800
7800
7800
7800
fc00
fc00
fc00
fc00
0000
0000
0000
0000
0000
0000
0000
0000
0000
ENDCHAR
STARTCHAR G
ENCODING 71
SWIDTH 323 0
DWIDTH 11 0
BBX 11 36 0 -9
BITMAP
0000
0000
0000
0000
0000
0000
7e00
ff00
ff00
ff00
e700
e700
e700
e000
e000
e000
ef80
ef80
e700
e700
e700
e700
e700
ff00
ff00
ff00
7b00
0000
0000
0000
0000
0000
0000
0000
0000
0000
ENDCHAR
STARTCHAR H
ENCODING 72
SWIDTH 470 0
DWIDTH 16 0
BBX 16 36 0 -9
BITMAP
0000
0000
0000
0000
0000
0000
fcfc
fcfc
fcfc
fcfc
7878
7878
7878
7878
7878
7ff8
7ff8
7ff8
7878
7878
7878
7878
7878
fcfc
fcfc
fcfc
fcfc
0000
0000
0000
0000
0000
0000
0000
0000
0000
ENDCHAR
STARTCHAR I
ENCODING 73
SWIDTH 235 0
DWIDTH 8 0
BBX 8 36 0 -9
BITMAP
00
00
00
00
00
00
fc
fc
fc
fc
78
78
78
78
78
78
78
78
78
78
78
78
78
fc
fc
fc
fc
00
00
00
00
00
00
00
00
00
ENDCHAR
STARTCHAR J
ENCODING 74
SWIDTH 323 0
DWIDTH 11 0
BBX 11 36 0 -9
BITMAP
0000
0000
0000
0000
0000
0000
0f80
0f80
0f80
0f80
0700
0700
0700
0700
0700
0700
0700
e700
e700
e700
e700
e700
e700
ff00
ff00
7e00
3c00
0000
0000
0000
0000
0000
0000
0000
0000
0000
ENDCHAR
STARTCHAR K
ENCODING 75
SWIDTH 352 0
DWIDTH 12 0
BBX 12 36 0 -9
BITMAP
0000
0000
0000
0000
0000
0000
f3c0
f3c0
f3c0
f3c0
71c0
7380
7300
7700
7e00
7e00
7c00
7e00
7e00
7700
7300
7380
7180
f3c0
f3c0
f3c0
f3c0
0000
0000
0000
0000
0000
0000
0000
0000
0000
ENDCHAR
STARTCHAR L
ENCODING 76
SWIDTH 323 0
DWIDTH 11 0
BBX 11 36 0 -9
BITMAP
0000
0000
0000
0000
0000
0000
f800
f800
f800
f800
7000
7000
7000
7000
7000
7000
7000
7000
7380
7380
7380
7380
7380
ff80
ff80
ff80
ff80
0000
0000
0000
0000
0000
0000
0000
0000
0000
ENDCHAR
STARTCHAR M
ENCODING 77
SWIDTH 441 0
DWIDTH 15 0
BBX 15 36 0 -9
BITMAP
0000
0000
0000
0000
0000
0000
f8f8
f8f8
f8f8
f8f8
7070
78f0
7df0
7df0
7df0
7ff0
7ff0
7ff0
7ff0
7770
7770
7270
7270
f8f8
f8f8
f8f8
f8f8
0000
0000
0000
0000
0000
0000
0000
0000
0000
ENDCHAR
STARTCHAR N
ENCODING 78
SWIDTH 382 0
DWIDTH 13 0
BBX 13 36 0 -9
BITMAP
0000
0000
0000
0000
0000
0000
f3e0
f3e0
f3e0
f3e0
71c0
79c0
79c0
7dc0
7dc0
7fc0
7fc0
7fc0
77c0
77c0
73c0
73c0
71c0
f9e0
f9e0
f9e0
f9e0
0000
0000
0000
0000
0000
0000
0000
0000
0000
ENDCHAR
STARTCHAR O
ENCODING 79
SWIDTH 294 0
DWIDTH 10 0
BBX 10 36 0 -9
BITMAP
00
00
00
00
00
00
3c
7e
ff
ff
e7
e7
e7
e7
e7
e7
e7
e7
e7
e7
e7
e7
e7
ff
ff
7e
3c
00
00
00
00
00
00
00
00
00
ENDCHAR
STARTCHAR P
ENCODING 80
SWIDTH 323 0
DWIDTH 11 0
BBX 11 36 0 -9
BITMAP
0000
0000
0000
0000
0000
0000
0000
fe00
ff00
ff80
ff80
7380
7380
7380
7380
7380
7f80
7f00
7e00
7000
7000
7000
7000
f800
f800
f800
f800
0000
0000
0000
0000
0000
0000
0000
0000
0000
ENDCHAR
STARTCHAR Q
ENCODING 81
SWIDTH 323 0
DWIDTH 11 0
BBX 11 36 0 -9
BITMAP
0000
0000
0000
0000
0000
0000
3c00
7e00
ff00
ff00
e700
e700
e700
e700
e700
e700
e700
e700
f700
ff00
ff00
ff00
ef00
e780
ff80
ff80
7980
0000
0000
0000
0000
0000
0000
0000
0000
0000
ENDCHAR
STARTCHAR R
ENCODING 82
SWIDTH 382 0
DWIDTH 13 0
BBX 13 36 0 -9
BITMAP
0000
0000
0000
0000
0000
0000
ff00
ff80
ff80
ff80
7380
7380
7380
7380
7380
7f80
7f80
7f80
7380
7380
73a0
73e0
71e0
f9e0
f9e0
f9e0
f8c0
0000
0000
0000
0000
0000
0000
0000
0000
0000
ENDCHAR
STARTCHAR S
ENCODING 83
SWIDTH 294 0
DWIDTH 10 0
BBX 10 36 0 -9
BITMAP
00
00
00
00
00
00
7e
ff
ff
ff
e7
e7
e7
e7
e0
f0
78
1e
0f
e7
e7
e7
e7
ff
ff
fe
dc
00
00
00
00
00
00
00
00
00
ENDCHAR
STARTCHAR T
ENCODING 84
SWIDTH 382 0
DWIDTH 13 0
BBX 13 36 0 -9
BITMAP
0000
0000
0000
0000
0000
0000
ffe0
ffe0
ffe0
ffe0
ce60
ce60
ce60
0e00
0e00
0e00
0e00
0e00
0e00
0e00
0e00
0e00
0e00
1f00
1f00
1f00
1f00
0000
0000
0000
0000
0000
0000
0000
0000
0000
ENDCHAR
STARTCHAR U
ENCODING 85
SWIDTH 294 0
DWIDTH 10 0
BBX 10 36 0 -9
BITMAP
00
00
00
00
00
00
e7
e7
e7
e7
e7
e7
e7
e7
e7
e7
e7
e7
e7
e7
e7
e7
ff
ff
7e
7e
3c
00
00
00
00
00
00
00
00
00
ENDCHAR
STARTCHAR V
ENCODING 86
SWIDTH 411 0
DWIDTH 14 0
BBX 14 36 0 -9
BITMAP
0000
0000
0000
0000
0000
0000
f9f0
f9f0
f9f0
f9f0
70e0
70e0
70e0
70e0
70e0
79e0
79e0
39c0
39c0
39c0
3fc0
1f80
1f80
1f80
0f00
0f00
0f00
0000
0000
0000
0000
0000
0000
0000
0000
0000
ENDCHAR
STARTCHAR W
ENCODING 87
SWIDTH 441 0
DWIDTH 15 0
BBX 15 36 0 -9
BITMAP
0000
0000
0000
0000
0000
0000
f8f8
f8f8
f8f8
f8f8
7070
7270
7770
7770
7770
7770
7ff0
7ff0
7ff0
7df0
7df0
38e0
38e0
3de0
3de0
3de0
3de0
0000
0000
0000
0000
0000
0000
0000
0000
0000
ENDCHAR
STARTCHAR X
ENCODING 88
SWIDTH 352 0
DWIDTH 12 0
BBX 12 36 0 -9
BITMAP
0000
0000
0000
0000
0000
0000
f3c0
f3c0
f3c0
f3c0
6180
7380
7380
3300
3f00
1e00
1e00
1e00
3f00
3300
7380
7380
6180
f3c0
f3c0
f3c0
f3c0
0000
0000
0000
0000
0000
0000
0000
0000
0000
ENDCHAR
STARTCHAR Y
ENCODING 89
SWIDTH 411 0
DWIDTH 14 0
BBX 14 36 0 -9
BITMAP
0000
0000
0000
0000
0000
0000
f9f0
f9f0
f9f0
f9f0
70e0
30c0
39c0
19c0
1f80
0f80
0f00
0f00
0f00
0f00
0f00
0f00
0f00
1f80
1f80
1f80
1f80
0000
0000
0000
0000
0000
0000
0000
0000
0000
ENDCHAR
STARTCHAR Z
ENCODING 90
SWIDTH 294 0
DWIDTH 10 0
BBX 10 36 0 -9
BITMAP
00
00
00
00
00
00
ff
ff
ff
ff
e7
e7
07
0e
1e
1c
3c
38
78
70
e0
e7
e7
ff
ff
ff
ff
00
00
00
00
00
00
00
00
00
ENDCHAR
STARTCHAR [
ENCODING 91
SWIDTH 323 0
DWIDTH 11 0
BBX 11 36 0 -9
BITMAP
00
00
00
00
00
00
ff
ff
f0
f0
f0
f0
f0
f0
f0
f0
f0
f0
f0
f0
f0
f0
f0
f0
f0
ff
ff
00
00
00
00
00
00
00
00
00
ENDCHAR
STARTCHAR ]
ENCODING 93
SWIDTH 352 0
DWIDTH 12 0
BBX 12 36 0 -9
BITMAP
00
00
00
00
00
00
ff
ff
0f
0f
0f
0f
0f
0f
0f
0f
0f
0f
0f
0f
0f
0f
0f
0f
0f
ff
ff
00
00
00
00
00
00
00
00
00
ENDCHAR
STARTCHAR a
ENCODING 97
SWIDTH 323 0
DWIDTH 11 0
BBX 11 36 0 -9
BITMAP
00
00
00
00
00
00
00
00
00
00
00
00
00
38
7c
fc
fc
cc
0c
3c
7c
cc
cc
fe
fe
fe
76
00
00
00
00
00
00
00
00
00
ENDCHAR
STARTCHAR b
ENCODING 98
SWIDTH 294 0
DWIDTH 10 0
BBX 10 36 0 -9
BITMAP
00
00
00
00
00
00
00
00
e0
e0
e0
e0
e0
e0
f8
fc
fc
fc
cc
cc
cc
cc
cc
fc
fc
fc
f8
00
00
00
00
00
00
00
00
00
ENDCHAR
STARTCHAR c
ENCODING 99
SWIDTH 294 0
DWIDTH 10 0
BBX 10 36 0 -9
BITMAP
00
00
00
00
00
00
00
00
00
00
00
00
00
78
fc
fc
fc
cc
cc
c0
c0
cc
cc
fc
fc
fc
78
00
00
00
00
00
00
00
00
00
ENDCHAR
STARTCHAR d
ENCODING 100
SWIDTH 294 0
DWIDTH 10 0
BBX 10 36 0 -9
BITMAP
00
00
00
00
00
00
00
00
1c
1c
1c
1c
1c
1c
7c
fc
fc
cc
cc
cc
cc
cc
cc
fc
fc
fc
7c
00
00
00
00
00
00
00
00
00
ENDCHAR
STARTCHAR e
ENCODING 101
SWIDTH 294 0
DWIDTH 10 0
BBX 10 36 0 -9
BITMAP
00
00
00
00
00
00
00
00
00
00
00
00
00
78
fc
fc
fc
cc
cc
fc
fc
c0
cc
fc
fc
fc
78
00
00
00
00
00
00
00
00
00
ENDCHAR
STARTCHAR f
ENCODING 102
SWIDTH 264 0
DWIDTH 9 0
BBX 9 36 0 -9
BITMAP
00
00
00
00
00
00
00
00
1e
3e
7e
7e
70
70
70
fc
fc
fc
70
70
70
70
70
70
70
70
70
00
00
00
00
00
00
00
00
00
ENDCHAR
STARTCHAR g
ENCODING 103
SWIDTH 352 0
DWIDTH 12 0
BBX 12 36 0 -9
BITMAP
00
00
00
00
00
00
00
00
00
00
00
00
00
07
07
06
3c
7c
fe
e6
e6
e6
e6
fe
fe
fc
f8
c0
fc
fe
c6
c6
fe
fe
7c
00
ENDCHAR
STARTCHAR h
ENCODING 104
SWIDTH 323 0
DWIDTH 11 0
BBX 11 36 0 -9
BITMAP
0000
0000
0000
0000
0000
0000
0000
f000
f000
f000
f000
7000
7000
7e00
7f00
7f00
7f00
7300
7300
7300
7300
7300
7300
f780
f780
f780
f780
0000
0000
0000
0000
0000
0000
0000
0000
0000
ENDCHAR
STARTCHAR i
ENCODING 105
SWIDTH 264 0
DWIDTH 9 0
BBX 9 36 0 -9
BITMAP
00
00
00
00
00
00
00
00
30
30
30
30
00
70
70
70
70
70
70
70
70
70
70
f8
f8
f8
f8
00
00
00
00
00
00
00
00
00
ENDCHAR
STARTCHAR j
ENCODING 106
SWIDTH 235 0
DWIDTH 8 0
BBX 8 36 0 -9
BITMAP
00
00
00
00
00
00
00
00
30
30
30
30
00
f0
f0
f0
f0
70
70
70
70
70
70
70
70
70
70
70
f0
f0
f0
e0
00
00
00
00
ENDCHAR
STARTCHAR k
ENCODING 107
SWIDTH 352 0
DWIDTH 12 0
BBX 12 36 0 -9
BITMAP
00
00
00
00
00
00
00
00
e0
e0
e0
e0
e0
e7
e7
e7
e7
e7
ee
fe
fc
ee
e6
e7
e7
e7
e7
00
00
00
00
00
00
00
00
00
ENDCHAR
STARTCHAR l
ENCODING 108
SWIDTH 205 0
DWIDTH 7 0
BBX 7 36 0 -9
BITMAP
00
00
00
00
00
00
00
00
f0
f0
f0
f0
70
70
70
70
70
70
70
70
70
70
70
f8
f8
f8
f8
00
00
00
00
00
00
00
00
00
ENDCHAR
STARTCHAR m
ENCODING 109
SWIDTH 441 0
DWIDTH 15 0
BBX 15 36 0 -9
BITMAP
0000
0000
0000
0000
0000
0000
0000
0000
0000
0000
0000
0000
0000
ed80
ffc0
ffe0
ffe0
eee0
eee0
eee0
eee0
eee0
eee0
eef0
eef0
eef0
eef0
0000
0000
0000
0000
0000
0000
0000
0000
0000
ENDCHAR
STARTCHAR n
ENCODING 110
SWIDTH 294 0
DWIDTH 10 0
BBX 10 36 0 -9
BITMAP
00
00
00
00
00
00
00
00
00
00
00
00
00
d8
fc
fc
fc
ec
ec
ec
ec
ec
ec
ee
ee
ee
ee
00
00
00
00
00
00
00
00
00
ENDCHAR
STARTCHAR o
ENCODING 111
SWIDTH 235 0
DWIDTH 8 0
BBX 8 36 0 -9
BITMAP
00
00
00
00
00
00
00
00
00
00
00
00
00
78
fc
fc
fc
cc
cc
cc
cc
cc
fc
fc
fc
fc
78
00
00
00
00
00
00
00
00
00
ENDCHAR
STARTCHAR p
ENCODING 112
SWIDTH 264 0
DWIDTH 9 0
BBX 9 36 0 -9
BITMAP
00
00
00
00
00
00
00
00
00
00
00
00
00
f8
fc
fc
fc
cc
cc
cc
cc
cc
cc
fc
fc
fc
f8
e0
e0
e0
e0
e0
00
00
00
00
ENDCHAR
STARTCHAR q
ENCODING 113
SWIDTH 264 0
DWIDTH 9 0
BBX 9 36 0 -9
BITMAP
00
00
00
00
00
00
00
00
00
00
00
00
00
7c
fc
fc
fc
cc
cc
cc
cc
cc
cc
fc
fc
fc
7c
1c
1c
1c
1c
1c
00
00
00
00
ENDCHAR
STARTCHAR r
ENCODING 114
SWIDTH 294 0
DWIDTH 10 0
BBX 10 36 0 -9
BITMAP
00
00
00
00
00
00
00
00
00
00
00
00
00
f6
ff
ff
ff
73
73
70
70
70
70
f8
f8
f8
f8
00
00
00
00
00
00
00
00
00
ENDCHAR
STARTCHAR s
ENCODING 115
SWIDTH 294 0
DWIDTH 10 0
BBX 10 36 0 -9
BITMAP
00
00
00
00
00
00
00
00
00
00
00
00
00
7c
fe
e6
e6
e0
e0
70
38
1c
0e
ce
ce
fe
bc
00
00
00
00
00
00
00
00
00
ENDCHAR
STARTCHAR t
ENCODING 116
SWIDTH 264 0
DWIDTH 9 0
BBX 9 36 0 -9
BITMAP
00
00
00
00
00
00
00
00
00
10
30
70
70
f8
f8
f8
f8
70
70
70
70
70
70
70
78
78
30
00
00
00
00
00
00
00
00
00
ENDCHAR
STARTCHAR u
ENCODING 117
SWIDTH 352 0
DWIDTH 12 0
BBX 12 36 0 -9
BITMAP
0000
0000
0000
0000
0000
0000
0000
0000
0000
0000
0000
0000
0000
e700
e700
e700
e700
e700
e700
e700
e700
e700
e700
e700
ff80
ff80
7d80
0000
0000
0000
0000
0000
0000
0000
0000
0000
ENDCHAR
STARTCHAR v
ENCODING 118
SWIDTH 235 0
DWIDTH 8 0
BBX 8 36 0 -9
BITMAP
00
00
00
00
00
00
00
00
00
00
00
00
00
ee
ee
ee
ee
ee
ee
ee
ee
ee
6c
6c
7c
38
38
00
00
00
00
00
00
00
00
00
ENDCHAR
STARTCHAR w
ENCODING 119
SWIDTH 411 0
DWIDTH 14 0
BBX 14 36 0 -9
BITMAP
0000
0000
0000
0000
0000
0000
0000
0000
0000
0000
0000
0000
0000
e4e0
eee0
eee0
eee0
eee0
eee0
eee0
eee0
7fc0
7fc0
7fc0
3b80
3b80
3b80
0000
0000
0000
0000
0000
0000
0000
0000
0000
ENDCHAR
STARTCHAR x
ENCODING 120
SWIDTH 294 0
DWIDTH 10 0
BBX 10 36 0 -9
BITMAP
00
00
00
00
00
00
00
00
00
00
00
00
00
ee
ee
ee
fe
7c
7c
38
38
78
7c
fe
ee
ee
ee
00
00
00
00
00
00
00
00
00
ENDCHAR
STARTCHAR y
ENCODING 121
SWIDTH 294 0
DWIDTH 10 0
BBX 10 36 0 -9
BITMAP
00
00
00
00
00
00
00
00
00
00
00
00
00
ee
ee
ee
ee
ee
6c
6c
6c
7c
7c
38
38
38
b8
f8
f8
f0
60
00
00
00
00
00
ENDCHAR
STARTCHAR z
ENCODING 122
SWIDTH 264 0
DWIDTH 9 0
BBX 9 36 0 -9
BITMAP
00
00
00
00
00
00
00
00
00
00
00
00
00
fc
fc
fc
fc
dc
1c
38
30
70
ec
fc
fc
fc
fc
00
00
00
00
00
00
00
00
00
ENDCHAR
ENDFONT
